HIERARCHY
ROOT Hips
{
	OFFSET 0.000000 100.481300 0.000000
	CHANNELS 6 Xposition Yposition Zposition Xrotation Yrotation Zrotation
	JOINT Spine
	{
		OFFSET -0.279200 12.230698 -2.892100
		CHANNELS 3 Xrotation Yrotation Zrotation
		JOINT Spine1
		{
			OFFSET -0.325700 14.269203 -3.374200
			CHANNELS 3 Xrotation Yrotation Zrotation
			JOINT Spine2
			{
				OFFSET -0.372300 16.307602 -0.352600
				CHANNELS 3 Xrotation Yrotation Zrotation
				JOINT Neck
				{
					OFFSET -0.418800 17.814194 8.416900
					CHANNELS 3 Xrotation Yrotation Zrotation
					JOINT Head
					{
						OFFSET 0.000000 7.031097 3.806800
						CHANNELS 3 Xrotation Yrotation Zrotation
						JOINT HeadTop_End
						{
							OFFSET 0.000000 24.646606 12.978600
							CHANNELS 3 Xrotation Yrotation Zrotation
							End Site
							{
								OFFSET 0.000000 27.854965 0.000000
							}
						}
					}
				}
				JOINT LeftShoulder
				{
					OFFSET 16.952999 14.495407 -7.737500
					CHANNELS 3 Xrotation Yrotation Zrotation
					JOINT LeftArm
					{
						OFFSET 9.308998 -2.777710 0.208600
						CHANNELS 3 Xrotation Yrotation Zrotation
						JOINT LeftForeArm
						{
							OFFSET 29.972298 0.000000 0.000000
							CHANNELS 3 Xrotation Yrotation Zrotation
							JOINT LeftHand
							{
								OFFSET 26.026505 0.000000 0.000000
								CHANNELS 3 Xrotation Yrotation Zrotation
								JOINT LeftHandThumb1
								{
									OFFSET 12.240501 -7.147949 9.207150
									CHANNELS 3 Xrotation Yrotation Zrotation
									JOINT LeftHandThumb2
									{
										OFFSET 4.138618 -2.389435 2.389433
										CHANNELS 3 Xrotation Yrotation Zrotation
										JOINT LeftHandThumb3
										{
											OFFSET 2.726913 -1.574387 1.574386
											CHANNELS 3 Xrotation Yrotation Zrotation
											JOINT LeftHandThumb4
											{
												OFFSET 3.941010 -2.275345 2.275342
												CHANNELS 3 Xrotation Yrotation Zrotation
												End Site
												{
													OFFSET -0.005798 5.087799 0.009903
												}
											}
										}
									}
								}
								JOINT LeftHandIndex1
								{
									OFFSET 24.424698 -1.985611 5.953459
									CHANNELS 3 Xrotation Yrotation Zrotation
									JOINT LeftHandIndex2
									{
										OFFSET 6.426697 0.000000 0.000000
										CHANNELS 3 Xrotation Yrotation Zrotation
										JOINT LeftHandIndex3
										{
											OFFSET 5.337898 0.000000 0.000000
											CHANNELS 3 Xrotation Yrotation Zrotation
											JOINT LeftHandIndex4
											{
												OFFSET 4.409401 0.000000 0.000000
												CHANNELS 3 Xrotation Yrotation Zrotation
												End Site
												{
													OFFSET 0.000000 4.409363 0.014373
												}
											}
										}
									}
								}
								JOINT LeftHandMiddle1
								{
									OFFSET 23.810104 0.000000 0.000000
									CHANNELS 3 Xrotation Yrotation Zrotation
									JOINT LeftHandMiddle2
									{
										OFFSET 7.176498 0.000000 0.000000
										CHANNELS 3 Xrotation Yrotation Zrotation
										JOINT LeftHandMiddle3
										{
											OFFSET 6.774902 0.000000 0.000000
											CHANNELS 3 Xrotation Yrotation Zrotation
											JOINT LeftHandMiddle4
											{
												OFFSET 5.403328 0.000000 0.000000
												CHANNELS 3 Xrotation Yrotation Zrotation
												End Site
												{
													OFFSET -0.027702 5.403244 0.017414
												}
											}
										}
									}
								}
								JOINT LeftHandRing1
								{
									OFFSET 22.908401 -0.839279 -6.020567
									CHANNELS 3 Xrotation Yrotation Zrotation
									JOINT LeftHandRing2
									{
										OFFSET 6.337502 0.000000 0.000000
										CHANNELS 3 Xrotation Yrotation Zrotation
										JOINT LeftHandRing3
										{
											OFFSET 5.779297 0.000000 0.000000
											CHANNELS 3 Xrotation Yrotation Zrotation
											JOINT LeftHandRing4
											{
												OFFSET 4.965698 0.000000 0.000000
												CHANNELS 3 Xrotation Yrotation Zrotation
												End Site
												{
													OFFSET 0.000000 4.965668 0.016186
												}
											}
										}
									}
								}
								JOINT LeftHandPinky1
								{
									OFFSET 20.037003 -1.530319 -10.950146
									CHANNELS 3 Xrotation Yrotation Zrotation
									JOINT LeftHandPinky2
									{
										OFFSET 5.254700 0.000000 0.000000
										CHANNELS 3 Xrotation Yrotation Zrotation
										JOINT LeftHandPinky3
										{
											OFFSET 4.810204 0.000000 0.000000
											CHANNELS 3 Xrotation Yrotation Zrotation
											JOINT LeftHandPinky4
											{
												OFFSET 3.647202 0.000000 0.000000
												CHANNELS 3 Xrotation Yrotation Zrotation
												End Site
												{
													OFFSET 0.000000 3.647186 0.011889
												}
											}
										}
									}
								}
							}
						}
					}
				}
				JOINT RightShoulder
				{
					OFFSET -15.141001 14.495407 -7.737500
					CHANNELS 3 Xrotation Yrotation Zrotation
					JOINT RightArm
					{
						OFFSET -9.308998 -2.777710 0.208500
						CHANNELS 3 Xrotation Yrotation Zrotation
						JOINT RightForeArm
						{
							OFFSET -29.972300 0.000000 0.000000
							CHANNELS 3 Xrotation Yrotation Zrotation
							JOINT RightHand
							{
								OFFSET -26.026505 0.000000 0.000000
								CHANNELS 3 Xrotation Yrotation Zrotation
								JOINT RightHandThumb1
								{
									OFFSET -12.240601 -7.148026 9.207092
									CHANNELS 3 Xrotation Yrotation Zrotation
									JOINT RightHandThumb2
									{
										OFFSET -4.138618 -2.389435 2.389433
										CHANNELS 3 Xrotation Yrotation Zrotation
										JOINT RightHandThumb3
										{
											OFFSET -2.726974 -1.574417 1.574421
											CHANNELS 3 Xrotation Yrotation Zrotation
											JOINT RightHandThumb4
											{
												OFFSET -3.941010 -2.275345 2.275343
												CHANNELS 3 Xrotation Yrotation Zrotation
												End Site
												{
													OFFSET 0.005814 5.087799 0.009927
												}
											}
										}
									}
								}
								JOINT RightHandIndex1
								{
									OFFSET -24.424698 -1.985657 5.953444
									CHANNELS 3 Xrotation Yrotation Zrotation
									JOINT RightHandIndex2
									{
										OFFSET -6.426697 0.000000 0.000000
										CHANNELS 3 Xrotation Yrotation Zrotation
										JOINT RightHandIndex3
										{
											OFFSET -5.337898 0.000000 0.000000
											CHANNELS 3 Xrotation Yrotation Zrotation
											JOINT RightHandIndex4
											{
												OFFSET -4.409401 0.000000 0.000000
												CHANNELS 3 Xrotation Yrotation Zrotation
												End Site
												{
													OFFSET 0.000000 4.409363 0.014408
												}
											}
										}
									}
								}
								JOINT RightHandMiddle1
								{
									OFFSET -23.810097 0.000000 0.000000
									CHANNELS 3 Xrotation Yrotation Zrotation
									JOINT RightHandMiddle2
									{
										OFFSET -7.176498 0.000000 0.000000
										CHANNELS 3 Xrotation Yrotation Zrotation
										JOINT RightHandMiddle3
										{
											OFFSET -6.774902 0.000000 0.000000
											CHANNELS 3 Xrotation Yrotation Zrotation
											JOINT RightHandMiddle4
											{
												OFFSET -5.403328 0.000000 0.000000
												CHANNELS 3 Xrotation Yrotation Zrotation
												End Site
												{
													OFFSET 0.027702 5.403244 0.017457
												}
											}
										}
									}
								}
								JOINT RightHandRing1
								{
									OFFSET -22.908302 -0.839325 -6.020576
									CHANNELS 3 Xrotation Yrotation Zrotation
									JOINT RightHandRing2
									{
										OFFSET -6.337502 0.000000 0.000000
										CHANNELS 3 Xrotation Yrotation Zrotation
										JOINT RightHandRing3
										{
											OFFSET -5.779297 0.000000 0.000000
											CHANNELS 3 Xrotation Yrotation Zrotation
											JOINT RightHandRing4
											{
												OFFSET -4.965698 0.000000 0.000000
												CHANNELS 3 Xrotation Yrotation Zrotation
												End Site
												{
													OFFSET 0.000000 4.965668 0.016226
												}
											}
										}
									}
								}
								JOINT RightHandPinky1
								{
									OFFSET -20.037003 -1.530334 -10.950259
									CHANNELS 3 Xrotation Yrotation Zrotation
									JOINT RightHandPinky2
									{
										OFFSET -5.254700 0.000000 0.000000
										CHANNELS 3 Xrotation Yrotation Zrotation
										JOINT RightHandPinky3
										{
											OFFSET -4.810204 0.000000 0.000000
											CHANNELS 3 Xrotation Yrotation Zrotation
											JOINT RightHandPinky4
											{
												OFFSET -3.647202 0.000000 0.000000
												CHANNELS 3 Xrotation Yrotation Zrotation
												End Site
												{
													OFFSET 0.000000 3.647186 0.011917
												}
											}
										}
									}
								}
							}
						}
					}
				}
			}
		}
	}
	JOINT LeftUpLeg
	{
		OFFSET 15.427100 -6.655098 0.678600
		CHANNELS 3 Xrotation Yrotation Zrotation
		JOINT LeftLeg
		{
			OFFSET 4.081073 -39.591068 13.024000
			CHANNELS 3 Xrotation Yrotation Zrotation
			JOINT LeftFoot
			{
				OFFSET -4.081074 -37.707932 -15.979700
				CHANNELS 3 Xrotation Yrotation Zrotation
				JOINT LeftToeBase
				{
					OFFSET 5.346399 -15.068900 20.645000
					CHANNELS 3 Xrotation Yrotation Zrotation
					JOINT LeftToe_End
					{
						OFFSET 2.754700 0.931300 11.300900
						CHANNELS 3 Xrotation Yrotation Zrotation
						End Site
						{
							OFFSET 0.000000 11.669021 0.000000
						}
					}
				}
			}
		}
	}
	JOINT RightUpLeg
	{
		OFFSET -15.569500 -6.655098 0.678600
		CHANNELS 3 Xrotation Yrotation Zrotation
		JOINT RightLeg
		{
			OFFSET -4.081825 -39.591045 13.023800
			CHANNELS 3 Xrotation Yrotation Zrotation
			JOINT RightFoot
			{
				OFFSET 4.081824 -37.707954 -15.979600
				CHANNELS 3 Xrotation Yrotation Zrotation
				JOINT RightToeBase
				{
					OFFSET -5.346400 -15.068900 20.645000
					CHANNELS 3 Xrotation Yrotation Zrotation
					JOINT RightToe_End
					{
						OFFSET -2.754700 0.931300 11.300900
						CHANNELS 3 Xrotation Yrotation Zrotation
						End Site
						{
							OFFSET 0.000000 11.669021 0.000000
						}
					}
				}
			}
		}
	}
}
MOTION
Frames: 4
Frame Time: 0.033333
3.145758 79.386337 -2.170776 -8.205128 -45.150890 -6.752495 -1.302294 0.523936 -0.084291 10.481359 1.045626 1.022331 18.264274 1.530849 0.810848 -3.595970 14.911034 -4.573922 -20.904289 24.865941 -1.059139 0.000000 -0.000000 -0.000000 3.924262 -14.495907 7.364607 5.925821 3.837298 -64.254294 -0.000002 -40.247272 -0.000002 -42.246974 -7.742180 -2.900157 14.100805 -23.808786 3.676674 3.910904 20.864346 2.523003 -5.377787 14.077305 16.709033 0.000002 0.000002 -0.000000 -3.746251 -6.410307 -21.785150 0.120863 1.185077 -11.645932 0.100130 1.079585 -10.596609 0.000001 -0.000001 -0.000002 -1.420000 1.319799 -29.894724 0.881411 3.092143 -31.812962 0.158013 1.352880 -13.324063 0.000003 0.000002 0.000001 1.389919 6.067065 -39.274807 0.789433 2.938913 -30.064833 0.810410 2.974834 -30.471813 0.000001 0.000001 -0.000000 1.706166 6.421105 -43.930756 0.017254 0.449736 -4.392992 0.732742 2.838880 -28.940335 0.000002 0.000000 -0.000001 9.043812 -6.513855 -16.191611 160.278585 181.736908 -140.442787 0.000003 38.871607 0.000003 -39.587192 -1.237226 -8.859824 35.257372 27.267416 1.437360 9.881014 -35.480685 7.669015 5.593504 -48.062088 -8.292452 -0.000003 0.000001 -0.000000 3.425558 -6.752612 74.000749 3.176210 -4.415915 71.439339 3.176218 -4.415929 71.439339 -0.000000 -0.000001 -0.000002 3.425558 -6.752611 74.000749 3.176214 -4.415919 71.439339 3.176227 -4.415926 71.439360 -0.000001 -0.000001 -0.000000 3.425560 -6.752609 74.000742 3.176211 -4.415917 71.439339 3.176217 -4.415922 71.439339 0.000001 0.000000 -0.000001 3.425558 -6.752612 74.000749 3.176219 -4.415928 71.439339 3.176217 -4.415915 71.439339 0.000001 -0.000001 0.000000 -28.708105 9.275122 28.780590 44.820678 -2.141150 1.859588 -8.691614 3.402692 -19.160725 -1.323960 -0.000006 -0.000001 0.000000 0.000001 -0.000000 -13.447414 -11.652111 -29.259506 39.627494 9.193567 -1.102922 -19.131517 -3.461879 23.505223 -1.694864 0.000593 -0.155080 -0.000000 -0.000001 0.000000 
4.032043 77.931740 -3.020977 -7.663197 -47.818930 -7.033503 -0.055793 0.410130 -0.109412 11.483441 0.629317 0.922066 19.478658 1.062634 0.785862 -3.641086 15.441449 -4.420270 -24.263513 26.572866 -0.253449 -0.000000 -0.000000 0.000000 3.977994 -14.567011 6.023157 0.938254 1.406540 -60.258190 -0.000012 -31.985602 0.000004 -44.107808 -7.817424 -1.149637 12.705356 -22.809391 3.699478 4.102701 20.461389 2.454900 -5.406606 13.806950 16.645845 -0.000001 -0.000004 0.000001 -2.805774 -7.038340 -16.352038 0.114579 1.154123 -11.337703 0.093876 1.045635 -10.259590 0.000001 -0.000002 -0.000000 -1.183787 0.369875 -21.988571 0.877255 3.085452 -31.736132 0.138269 1.266637 -12.460294 0.000000 0.000001 0.000001 0.912186 5.393862 -31.178376 0.718963 2.813833 -28.660785 0.762641 2.892213 -29.538345 0.000001 0.000004 0.000002 1.181946 5.798542 -35.945086 0.044823 0.724098 -7.084418 0.635506 2.655623 -26.911582 0.000002 -0.000003 0.000001 9.205279 -1.862801 -13.076706 155.060020 193.320499 -130.693266 -0.000005 33.940549 0.000005 -41.281674 -3.465099 -4.140965 35.257358 27.267420 1.437371 9.881035 -35.480719 7.669006 5.593837 -48.062965 -8.292401 -0.000002 -0.000001 -0.000002 3.425552 -6.752618 74.000749 3.176223 -4.415910 71.439339 3.176217 -4.415929 71.439346 0.000002 -0.000001 -0.000001 3.425554 -6.752616 74.000749 3.176229 -4.415909 71.439346 3.176213 -4.415932 71.439339 0.000002 0.000002 0.000001 3.425548 -6.752612 74.000742 3.176224 -4.415912 71.439339 3.176216 -4.415924 71.439339 0.000001 0.000003 -0.000000 3.425554 -6.752617 74.000749 3.176232 -4.415916 71.439339 3.176212 -4.415922 71.439346 -0.000003 -0.000001 -0.000001 -30.808962 8.891845 31.308146 47.466396 -1.731445 0.975008 -9.253897 3.734032 -19.566098 -1.323960 -0.000007 -0.000001 0.000000 -0.000002 -0.000000 -18.208806 -9.859661 -29.653249 42.703879 10.993402 -0.140795 -18.652015 -2.364655 22.082082 -1.658309 0.000422 -0.129044 0.000000 -0.000001 0.000000 
4.838325 76.568512 -3.570853 -6.810560 -49.443483 -7.108691 0.861423 0.180128 0.042472 12.126632 0.293495 0.927845 20.328125 0.693600 0.830598 -3.769190 15.832146 -4.110416 -25.911171 28.023237 0.197062 0.000000 -0.000000 -0.000000 4.060969 -14.234279 5.165062 -3.819431 -1.805273 -57.771584 0.000010 -24.118344 0.000005 -45.536670 -7.725847 0.622379 11.092248 -21.118672 3.839876 4.410703 20.717757 2.438333 -5.338370 14.451154 16.796299 0.000000 0.000002 0.000006 -2.468578 -7.486558 -14.162337 0.116114 1.161846 -11.414506 0.096126 1.058008 -10.382289 0.000003 0.000000 0.000001 -0.904960 -0.423265 -15.412863 0.896374 3.116093 -32.089263 0.124016 1.200314 -11.798084 -0.000002 -0.000002 -0.000002 0.589852 4.785006 -24.429049 0.704664 2.787545 -28.368065 0.752979 2.875084 -29.345915 0.000001 -0.000000 0.000002 0.812951 5.224192 -29.253092 0.166149 1.386712 -13.663789 0.593443 2.571154 -25.989245 -0.000003 -0.000001 -0.000000 8.536611 3.927789 -10.467460 152.045844 204.318839 -124.611269 0.000001 29.722354 -0.000011 -42.366291 -3.152950 -3.038931 35.257365 27.267403 1.437365 9.881052 -35.480767 7.669029 5.594193 -48.063860 -8.292356 -0.000002 0.000000 0.000001 3.425559 -6.752635 74.000742 3.176202 -4.415913 71.439339 3.176205 -4.415939 71.439346 -0.000001 0.000001 -0.000001 3.425558 -6.752634 74.000742 3.176207 -4.415914 71.439339 3.176213 -4.415948 71.439360 0.000001 0.000003 0.000001 3.425560 -6.752634 74.000735 3.176209 -4.415915 71.439346 3.176206 -4.415938 71.439353 0.000001 0.000002 0.000000 3.425559 -6.752635 74.000742 3.176211 -4.415921 71.439339 3.176198 -4.415932 71.439346 0.000000 0.000000 -0.000002 -33.139528 7.979637 33.246472 50.090620 -1.593196 0.402275 -9.771301 3.948780 -19.772296 -1.323959 -0.000006 -0.000001 -0.000000 -0.000001 -0.000000 -22.180969 -9.049343 -29.549072 45.224308 12.605137 0.058316 -18.250127 -2.038955 21.142308 -1.615243 0.000218 -0.098391 -0.000000 0.000001 0.000000 
5.468529 75.525482 -3.815302 -5.944555 -50.487143 -6.928526 1.472878 -0.077287 0.069774 12.590656 -0.009157 0.813549 20.998199 0.327476 0.776219 -3.835005 16.188353 -3.814559 -26.956185 29.150141 0.456650 -0.000000 -0.000000 -0.000000 4.134683 -13.813284 4.553588 -7.272598 -4.822914 -56.223088 -0.000002 -18.789528 0.000000 -46.378443 -7.468305 2.624960 9.111071 -18.829868 4.039632 4.817518 21.504924 2.461641 -5.216507 15.640279 17.073036 -0.000002 0.000003 0.000002 -2.543055 -7.836843 -14.139428 0.123716 1.198859 -11.783486 0.101912 1.089128 -10.691303 0.000002 0.000001 -0.000001 -0.669627 -0.997411 -10.866987 0.929324 3.167978 -32.690542 0.114897 1.155755 -11.353854 0.000003 0.000001 0.000001 0.426125 4.387583 -20.222360 0.737405 2.847261 -29.034192 0.757319 2.882833 -29.432757 -0.000000 0.000002 0.000003 0.617887 4.845578 -25.082203 0.431844 2.209412 -22.115978 0.585667 2.555180 -25.815523 -0.000004 0.000001 -0.000002 7.431018 8.928080 -8.682857 151.157141 211.068514 -121.167829 -0.000002 25.768982 0.000019 -43.139082 -0.270017 -5.170333 35.257378 27.267406 1.437354 9.881059 -35.480814 7.669041 5.594468 -48.064738 -8.292365 -0.000000 0.000003 -0.000000 3.425579 -6.752620 74.000749 3.176221 -4.415912 71.439339 3.176219 -4.415930 71.439346 -0.000000 -0.000002 -0.000000 3.425579 -6.752620 74.000756 3.176221 -4.415914 71.439339 3.176215 -4.415937 71.439353 -0.000000 -0.000001 0.000000 3.425581 -6.752621 74.000762 3.176222 -4.415913 71.439339 3.176219 -4.415930 71.439346 0.000000 0.000001 -0.000000 3.425580 -6.752620 74.000756 3.176226 -4.415920 71.439339 3.176211 -4.415923 71.439353 -0.000000 -0.000003 -0.000001 -34.974554 7.177132 34.526374 52.135903 -1.561006 -0.090822 -10.248164 4.085183 -19.779586 -1.323959 -0.000005 -0.000001 -0.000000 0.000000 -0.000000 -25.172401 -8.665425 -29.314250 47.132106 13.372305 -0.494010 -17.991282 -1.802345 21.038494 -1.569991 0.000106 -0.066169 -0.000000 -0.000002 -0.000000 
